<?xml version="1.0" encoding="iso-8859-1"?>
<!-- Generator: Adobe Illustrator 16.0.0, SVG Export Plug-In . SVG Version: 6.00 Build 0)  -->
<!DOCTYPE svg PUBLIC "-//W3C//DTD SVG 1.1//EN" "http://www.w3.org/Graphics/SVG/1.1/DTD/svg11.dtd">
<svg version="1.1" id="Capa_1" xmlns="http://www.w3.org/2000/svg" xmlns:xlink="http://www.w3.org/1999/xlink" x="0px" y="0px"
	 width="612px" height="612px" viewBox="0 0 612 612" style="enable-background:new 0 0 612 612;" xml:space="preserve">
<g>
	<g id="search">
		<g>
			<path d="M605.431,573.739L457.217,425.525c37.883-45.041,60.769-103.079,60.769-166.533C517.985,115.958,402.027,0,258.993,0
				S0,115.958,0,258.993s115.958,258.993,258.993,258.993c63.454,0,121.492-22.886,166.533-60.769l148.214,148.214
				c8.759,8.759,22.933,8.759,31.691,0S614.189,582.498,605.431,573.739z M258.993,470.896
				c-117.041,0-211.903-94.862-211.903-211.904c0-117.041,94.862-211.903,211.903-211.903c117.042,0,211.904,94.862,211.904,211.903
				C470.896,376.034,376.034,470.896,258.993,470.896z"/>
		</g>
	</g>
</g>
<g>
</g>
<g>
</g>
<g>
</g>
<g>
</g>
<g>
</g>
<g>
</g>
<g>
</g>
<g>
</g>
<g>
</g>
<g>
</g>
<g>
</g>
<g>
</g>
<g>
</g>
<g>
</g>
<g>
</g>
</svg>
